<svg width="24" height="24" viewBox="0 0 24 24" fill="none" xmlns="http://www.w3.org/2000/svg">
<g clip-path="url(#clip0_1_264)">
<path fill-rule="evenodd" clip-rule="evenodd" d="M9.75 13.125C9.75 13.7463 9.24632 14.25 8.625 14.25C8.00368 14.25 7.5 13.7463 7.5 13.125C7.5 12.5037 8.00368 12 8.625 12C9.24632 12 9.75 12.5037 9.75 13.125ZM15.375 12C14.7537 12 14.25 12.5037 14.25 13.125C14.25 13.7463 14.7537 14.25 15.375 14.25C15.9963 14.25 16.5 13.7463 16.5 13.125C16.5 12.5037 15.9963 12 15.375 12ZM22.3547 18.0844L16.0734 20.8697C15.6917 21.0394 15.2569 21.044 14.8716 20.8826C14.4863 20.7211 14.1848 20.4077 14.0381 20.0166L13.2778 17.9541C12.8578 17.9822 12.4319 17.9966 12 17.9972C11.5681 17.9978 11.1422 17.9834 10.7222 17.9541L9.96187 20.0166C9.81502 20.4076 9.51344 20.7207 9.12825 20.8822C8.74305 21.0436 8.30832 21.0391 7.92656 20.8697L1.64531 18.0844C0.975771 17.7916 0.616389 17.0574 0.795937 16.3491L3.5625 5.4375C3.7117 4.85761 4.19014 4.42113 4.78125 4.32562L8.16187 3.76969C8.934 3.6455 9.67442 4.12722 9.87375 4.88344L10.1794 6.08719C10.775 6.02906 11.3819 6 12 6C12.6181 6 13.2244 6.02906 13.8188 6.08719L14.1244 4.88344C14.3233 4.12694 15.064 3.64504 15.8363 3.76969L19.2188 4.32562C19.8099 4.42113 20.2883 4.85761 20.4375 5.4375L23.2059 16.3481C23.3857 17.0573 23.0254 17.7922 22.3547 18.0844ZM21.75 16.7138L18.9816 5.8125C18.9816 5.8125 18.9816 5.8125 18.9741 5.8125L15.5934 5.25C15.5885 5.24715 15.5824 5.24715 15.5775 5.25L15.3122 6.29437C15.7809 6.3825 16.2497 6.4875 16.7025 6.615C17.0721 6.70921 17.3121 7.06579 17.2603 7.44366C17.2085 7.82153 16.8813 8.10033 16.5 8.09156C16.4315 8.09137 16.3634 8.08191 16.2975 8.06344C14.8968 7.68336 13.4513 7.49384 12 7.5C10.5487 7.49354 9.10322 7.68274 7.7025 8.0625C7.442 8.14303 7.15832 8.07585 6.96162 7.88704C6.76491 7.69822 6.68617 7.41753 6.75597 7.15396C6.82578 6.89038 7.03312 6.68545 7.2975 6.61875C7.74938 6.49125 8.21438 6.38625 8.68688 6.29812L8.42156 5.25C8.42156 5.25 8.42156 5.25 8.41031 5.25L5.02594 5.80594C5.02318 5.80518 5.02026 5.80518 5.0175 5.80594L2.25 16.7184L8.53125 19.5C8.53768 19.5035 8.54545 19.5035 8.55188 19.5L9.1875 17.7862C8.55065 17.6888 7.92016 17.5536 7.29938 17.3813C6.91509 17.2585 6.69678 16.8537 6.80528 16.4651C6.91377 16.0766 7.31019 15.8434 7.7025 15.9375C9.10313 16.3177 10.5487 16.5069 12 16.5C13.4513 16.5069 14.8969 16.3177 16.2975 15.9375C16.6964 15.8257 17.1105 16.0584 17.2223 16.4573C17.3342 16.8563 17.1014 17.2703 16.7025 17.3822C16.0811 17.5543 15.45 17.6892 14.8125 17.7862L15.4453 19.5C15.4515 19.5033 15.4589 19.5033 15.465 19.5L21.75 16.7138Z" fill="#61758A"/>
</g>
<defs>
<clipPath id="clip0_1_264">
<rect width="24" height="24" fill="white"/>
</clipPath>
</defs>
</svg>
