<?xml version="1.0" encoding="UTF-8"?>
<!DOCTYPE svg PUBLIC "-//W3C//DTD SVG 1.1//EN" "http://www.w3.org/Graphics/SVG/1.1/DTD/svg11.dtd">
<svg xmlns="http://www.w3.org/2000/svg" version="1.1" width="512px" height="512px" style="shape-rendering:geometricPrecision; text-rendering:geometricPrecision; image-rendering:optimizeQuality; fill-rule:evenodd; clip-rule:evenodd" xmlns:xlink="http://www.w3.org/1999/xlink">
<g><path style="opacity:0.968" fill="#000000" d="M 248.5,23.5 C 263.332,20.8241 273.165,26.4908 278,40.5C 278.943,57.8864 278.61,75.2197 277,92.5C 268.15,106.54 256.317,109.707 241.5,102C 237.261,98.35 234.428,93.85 233,88.5C 232.333,72.5 232.333,56.5 233,40.5C 235.283,32.0562 240.45,26.3895 248.5,23.5 Z"/></g>
<g><path style="opacity:0.955" fill="#000000" d="M 101.5,84.5 C 108.221,83.7513 114.554,84.9179 120.5,88C 132,98.1667 142.833,109 153,120.5C 160.495,137.024 155.995,148.858 139.5,156C 132.785,157.248 126.452,156.248 120.5,153C 109,142.833 98.1667,132 88,120.5C 80.5986,103.857 85.0986,91.8569 101.5,84.5 Z"/></g>
<g><path style="opacity:0.955" fill="#000000" d="M 397.5,84.5 C 411.634,82.6422 421.134,88.3089 426,101.5C 427.87,110.216 425.87,117.883 420,124.5C 410.47,134.364 400.637,143.864 390.5,153C 375.641,160.156 364.141,156.656 356,142.5C 352.855,132.866 354.521,124.199 361,116.5C 369.5,108 378,99.5 386.5,91C 389.933,88.2894 393.6,86.1227 397.5,84.5 Z"/></g>
<g><path style="opacity:0.982" fill="#000000" d="M 239.5,119.5 C 289.035,115.388 329.868,132.055 362,169.5C 393.375,211.765 400.041,257.765 382,307.5C 353.567,367.317 306.067,395.15 239.5,391C 187.395,383.211 150.561,355.378 129,307.5C 110.952,257.802 117.619,211.802 149,169.5C 172.894,141.47 203.061,124.803 239.5,119.5 Z M 263.5,136.5 C 312.812,141.733 347.312,167.066 367,212.5C 383.897,264.75 372.397,309.583 332.5,347C 312.444,363.355 289.444,372.521 263.5,374.5C 263.5,295.167 263.5,215.833 263.5,136.5 Z"/></g>
<g><path style="opacity:0.833" fill="#000000" d="M 328.5,183.5 C 330.655,183.372 332.655,183.872 334.5,185C 338.05,188.883 341.217,193.049 344,197.5C 345.825,202.986 343.992,205.486 338.5,205C 334.546,200.258 330.713,195.424 327,190.5C 326.167,187.829 326.667,185.496 328.5,183.5 Z"/></g>
<g><path style="opacity:0.823" fill="#000000" d="M 345.5,210.5 C 349.182,209.725 351.682,211.059 353,214.5C 355.206,219.286 356.706,224.286 357.5,229.5C 357.167,233.989 354.833,235.489 350.5,234C 347.774,227.824 345.441,221.49 343.5,215C 343.519,213.167 344.185,211.667 345.5,210.5 Z"/></g>
<g><path style="opacity:0.969" fill="#000000" d="M 40.5,232.5 C 56.5035,232.333 72.5035,232.5 88.5,233C 103.008,238.176 108.508,248.343 105,263.5C 101.977,271.192 96.4773,276.025 88.5,278C 72.5,278.667 56.5,278.667 40.5,278C 26.3311,273.173 20.8311,263.34 24,248.5C 26.752,240.247 32.252,234.913 40.5,232.5 Z"/></g>
<g><path style="opacity:0.969" fill="#000000" d="M 422.5,232.5 C 438.503,232.333 454.503,232.5 470.5,233C 484.669,237.827 490.169,247.66 487,262.5C 484.427,270.739 478.927,275.905 470.5,278C 454.5,278.667 438.5,278.667 422.5,278C 407.992,272.824 402.492,262.657 406,247.5C 409.206,239.786 414.706,234.786 422.5,232.5 Z"/></g>
<g><path style="opacity:0.858" fill="#000000" d="M 353.5,241.5 C 356.044,241.104 358.211,241.771 360,243.5C 360.238,247.222 360.738,250.889 361.5,254.5C 360.746,257.777 360.246,261.11 360,264.5C 355.226,267.587 352.392,266.254 351.5,260.5C 351.81,254.878 351.976,249.212 352,243.5C 352.717,242.956 353.217,242.289 353.5,241.5 Z"/></g>
<g><path style="opacity:0.838" fill="#000000" d="M 351.5,273.5 C 353.604,273.201 355.604,273.534 357.5,274.5C 358.084,281.844 356.584,288.844 353,295.5C 348.913,298.595 346.079,297.595 344.5,292.5C 346.658,286.017 348.992,279.683 351.5,273.5 Z"/></g>
<g><path style="opacity:0.834" fill="#000000" d="M 340.5,302.5 C 345.989,302.504 347.822,305.171 346,310.5C 342.882,315.286 339.382,319.786 335.5,324C 330.502,325.33 328.336,323.496 329,318.5C 333.084,313.265 336.917,307.931 340.5,302.5 Z"/></g>
<g><path style="opacity:0.955" fill="#000000" d="M 127.5,354.5 C 141.634,352.642 151.134,358.309 156,371.5C 157.87,380.216 155.87,387.883 150,394.5C 140.47,404.364 130.637,413.864 120.5,423C 105.641,430.156 94.1414,426.656 86,412.5C 82.8546,402.866 84.5212,394.199 91,386.5C 99.5,378 108,369.5 116.5,361C 119.933,358.289 123.6,356.123 127.5,354.5 Z"/></g>
<g><path style="opacity:0.955" fill="#000000" d="M 371.5,354.5 C 378.221,353.751 384.554,354.918 390.5,358C 402,368.167 412.833,379 423,390.5C 430.495,407.024 425.995,418.858 409.5,426C 402.785,427.248 396.452,426.248 390.5,423C 379,412.833 368.167,402 358,390.5C 350.612,373.813 355.112,361.813 371.5,354.5 Z"/></g>
<g><path style="opacity:0.968" fill="#000000" d="M 252.5,404.5 C 265.717,404.011 274.217,410.011 278,422.5C 278.667,438.5 278.667,454.5 278,470.5C 271.52,486.782 260.02,491.615 243.5,485C 237.933,481.713 234.433,476.879 233,470.5C 232.057,453.114 232.39,435.78 234,418.5C 237.797,410.536 243.964,405.869 252.5,404.5 Z"/></g>
</svg>
