<?xml version="1.0" encoding="UTF-8"?>
<!DOCTYPE svg PUBLIC "-//W3C//DTD SVG 1.1//EN" "http://www.w3.org/Graphics/SVG/1.1/DTD/svg11.dtd">
<svg xmlns="http://www.w3.org/2000/svg" version="1.1" width="512px" height="512px" style="shape-rendering:geometricPrecision; text-rendering:geometricPrecision; image-rendering:optimizeQuality; fill-rule:evenodd; clip-rule:evenodd" xmlns:xlink="http://www.w3.org/1999/xlink">
<g><path style="opacity:0.992" fill="#fff" d="M 178.5,15.5 C 191.588,13.2008 199.255,18.5341 201.5,31.5C 174.576,111.972 187.743,184.972 241,250.5C 296.425,309.642 364.258,332.475 444.5,319C 456.248,316.14 467.914,312.973 479.5,309.5C 492.624,311.737 497.791,319.404 495,332.5C 468.073,402.428 419.906,451.594 350.5,480C 267.242,508.82 189.242,498.486 116.5,449C 50.8945,398.627 16.8945,331.794 14.5,248.5C 17.7487,156.13 58.082,85.2969 135.5,36C 149.408,28.0439 163.741,21.2106 178.5,15.5 Z"/></g>
</svg>
